<svg width="512" height="512" viewBox="0 0 512 512" fill="none" xmlns="http://www.w3.org/2000/svg">
<g clip-path="url(#clip0_814_16)">
<path d="M512 256C512 114.615 397.385 0 256 0C114.615 0 0 114.615 0 256C0 397.385 114.615 512 256 512C397.385 512 512 397.385 512 256Z" fill="url(#paint0_linear_814_16)"/>
<path d="M448.673 87.5789C411.351 156.093 358.568 226.762 292.614 292.716C226.66 358.669 155.991 411.352 87.578 448.674C83.2889 444.946 79.1233 441.061 75.0812 437.019C50.6486 413.402 31.1623 385.157 17.7586 353.931C4.35494 322.705 -2.69791 289.123 -2.98867 255.144C-3.27944 221.164 3.19769 187.466 16.065 156.015C28.9324 124.565 47.9325 95.9907 71.9574 71.9591C95.9822 47.9275 124.551 28.9194 155.998 16.0433C187.445 3.16716 221.141 -3.31939 255.121 -3.0381C289.101 -2.75682 322.685 4.28665 353.914 17.6816C385.144 31.0766 413.394 50.555 437.018 74.981C441.06 79.0231 444.945 83.2224 448.673 87.5789Z" fill="white" fill-opacity="0.0627451"/>
<path d="M448.673 87.5789C411.351 156.093 358.568 226.762 292.614 292.716C226.66 358.669 155.991 411.352 87.578 448.674C83.2889 444.946 79.1233 441.061 75.0812 437.019C50.6486 413.402 31.1623 385.157 17.7586 353.931C4.35494 322.705 -2.69791 289.123 -2.98867 255.144C-3.27944 221.164 3.19769 187.466 16.065 156.015C28.9324 124.565 47.9325 95.9907 71.9574 71.9591C95.9822 47.9275 124.551 28.9194 155.998 16.0433C187.445 3.16716 221.141 -3.31939 255.121 -3.0381C289.101 -2.75682 322.685 4.28665 353.914 17.6816C385.144 31.0766 413.394 50.555 437.018 74.981C441.06 79.0231 444.945 83.2224 448.673 87.5789Z" fill="white" fill-opacity="0.0627451"/>
<path d="M316.63 121.264H195.367C175.713 121.264 156.864 129.071 142.967 142.969C129.069 156.866 121.262 175.715 121.262 195.369V316.632C121.262 336.286 129.069 355.135 142.967 369.032C156.864 382.93 175.713 390.737 195.367 390.737H316.63C336.284 390.737 355.133 382.93 369.03 369.032C382.928 355.135 390.735 336.286 390.735 316.632V195.369C390.735 175.715 382.928 156.866 369.03 142.969C355.133 129.071 336.284 121.264 316.63 121.264ZM367.156 305.988C367.156 322.211 360.712 337.77 349.24 349.242C337.768 360.714 322.209 367.158 305.986 367.158H206.011C189.788 367.158 174.229 360.714 162.757 349.242C151.285 337.77 144.841 322.211 144.841 305.988V206.013C144.841 189.79 151.285 174.231 162.757 162.759C174.229 151.287 189.788 144.843 206.011 144.843H305.986C322.209 144.843 337.768 151.287 349.24 162.759C360.712 174.231 367.156 189.79 367.156 206.013V305.988Z" fill="white"/>
<path d="M305.145 207.36L304.505 206.72L303.966 206.181C291.23 193.49 273.98 186.367 256 186.375C246.92 186.437 237.941 188.287 229.577 191.82C221.212 195.353 213.625 200.499 207.25 206.965C200.875 213.431 195.837 221.089 192.422 229.503C189.008 237.917 187.285 246.921 187.351 256C187.338 274.427 194.601 292.114 207.562 305.213C213.91 311.639 221.475 316.735 229.815 320.205C238.155 323.675 247.102 325.449 256.135 325.424C269.684 325.139 282.857 320.919 294.049 313.276C305.24 305.634 313.966 294.9 319.162 282.383C324.358 269.867 325.799 256.109 323.31 242.787C320.821 229.466 314.51 217.157 305.145 207.36ZM256 301.676C246.94 301.803 238.047 299.233 230.452 294.292C222.857 289.35 216.903 282.262 213.347 273.928C209.792 265.594 208.796 256.39 210.485 247.488C212.175 238.586 216.474 230.388 222.835 223.936C229.197 217.484 237.334 213.07 246.211 211.255C255.088 209.44 264.305 210.306 272.688 213.744C281.072 217.181 288.243 223.035 293.291 230.559C298.339 238.084 301.035 246.94 301.036 256C301.08 261.957 299.95 267.865 297.71 273.384C295.471 278.904 292.165 283.929 287.983 288.171C283.8 292.413 278.823 295.789 273.335 298.106C267.847 300.423 261.957 301.637 256 301.676ZM345.027 183.175C345.045 185.337 344.636 187.48 343.824 189.484C343.013 191.487 341.814 193.311 340.296 194.85C338.779 196.389 336.973 197.614 334.981 198.455C332.99 199.295 330.852 199.735 328.69 199.748C326.547 199.747 324.425 199.321 322.448 198.494C320.47 197.667 318.677 196.456 317.17 194.931C314.888 192.616 313.336 189.681 312.706 186.492C312.076 183.303 312.396 179.999 313.626 176.99C314.856 173.981 316.943 171.399 319.627 169.564C322.31 167.73 325.474 166.723 328.724 166.67C332.528 166.669 336.212 168.004 339.133 170.443L339.469 170.779C340.013 171.222 340.509 171.718 340.951 172.262L341.322 172.666C343.733 175.636 345.042 179.349 345.027 183.175Z" fill="white"/>
</g>
<defs>
<linearGradient id="paint0_linear_814_16" x1="74.9811" y1="74.9811" x2="437.019" y2="437.019" gradientUnits="userSpaceOnUse">
<stop stop-color="#FAE100"/>
<stop offset="0.15" stop-color="#FCB720"/>
<stop offset="0.3" stop-color="#FF7950"/>
<stop offset="0.5" stop-color="#FF1C74"/>
<stop offset="1" stop-color="#6C1CD1"/>
</linearGradient>
<clipPath id="clip0_814_16">
<rect width="512" height="512" fill="white"/>
</clipPath>
</defs>
</svg>
