<svg width="512" height="512" viewBox="0 0 512 512" fill="none" xmlns="http://www.w3.org/2000/svg">
<g clip-path="url(#clip0_814_2)">
<path d="M256 0C114.62 0 0 114.62 0 256C0 397.38 114.62 512 256 512C397.38 512 512 397.38 512 256C512 114.62 397.38 0 256 0Z" fill="url(#paint0_radial_814_2)"/>
<path d="M451.673 90.5789C414.351 159.093 361.568 229.762 295.614 295.716C229.66 361.669 158.991 414.352 90.578 451.674C86.2889 447.946 82.1233 444.061 78.0812 440.019C53.6486 416.402 34.1623 388.157 20.7586 356.931C7.35494 325.705 0.302093 292.123 0.011326 258.144C-0.279441 224.164 6.19769 190.466 19.065 159.015C31.9324 127.565 50.9325 98.9907 74.9574 74.9591C98.9822 50.9275 127.551 31.9194 158.998 19.0433C190.445 6.16716 224.141 -0.319385 258.121 -0.0381037C292.101 0.243178 325.685 7.28665 356.914 20.6816C388.144 34.0766 416.394 53.555 440.018 77.981C444.06 82.0231 447.945 86.2224 451.673 90.5789Z" fill="white" fill-opacity="0.0627451"/>
<path d="M278.452 237.47L366.308 135H345.489L269.203 223.974L208.274 135H138L230.137 269.544L138 377H158.82L239.38 283.041L303.726 377H374L278.447 237.47H278.452ZM166.322 150.726H198.301L345.499 361.989H313.52L166.322 150.726Z" fill="white"/>
</g>
<defs>
<radialGradient id="paint0_radial_814_2" cx="0" cy="0" r="1" gradientUnits="userSpaceOnUse" gradientTransform="translate(256 256) rotate(90) scale(256)">
<stop stop-color="#666666"/>
<stop offset="1"/>
</radialGradient>
<clipPath id="clip0_814_2">
<rect width="512" height="512" fill="white"/>
</clipPath>
</defs>
</svg>
